# xmcd CD database file
#
# Track frame offsets:
#	150
#	29131
#	47494
#	77115
#	102917
#	143267
#	166409
#	193671
#	218928
#
# Disc length: 3267 seconds
#
# Revision: 0
# Processed by: cddbd v1.5.2PL0 Copyright (c) Steve Scherf et al.
# Submitted via: CDex 1.51
#
DISCID=770cc109
DTITLE=Carl Maraghi - Blossom
DYEAR=2007
DGENRE=Jazz
TTITLE0=Piano Concerto 1
TTITLE1=Piano Concerto 2
TTITLE2=Piano Concerto 3
TTITLE3=Feel
TTITLE4=Haleakala
TTITLE5=A Flower Is A Lovesome Thing
TTITLE6=Harbour Road
TTITLE7=Le Coq
TTITLE8=Lotus Blossom
EXTD=YEAR: 2007
EXTT0=
EXTT1=
EXTT2=
EXTT3=
EXTT4=
EXTT5=
EXTT6=
EXTT7=
EXTT8=
PLAYORDER=
